/* XPM */
static char *_7222e1017824df7f3694cb3168c8b59cJAgLhQMtu3jAAy1[] = {
/* columns rows colors chars-per-pixel */
"32 32 225 2 ",
"   c None",
".  c #140A04",
"X  c #1A0C04",
"o  c #1F1004",
"O  c #010B1A",
"+  c #0D1217",
"@  c #121616",
"#  c #1D1E14",
"$  c #151815",
"%  c #210F04",
"&  c #2B1304",
"*  c #251004",
"=  c #331404",
"-  c #3A1604",
";  c #331B04",
":  c #1E2013",
">  c #3B310F",
",  c #212112",
"<  c #2A2412",
"1  c #421704",
"2  c #441A04",
"3  c #4D1C04",
"4  c #441E09",
"5  c #551C04",
"6  c #591D04",
"7  c #641F04",
"8  c #4C2504",
"9  c #462504",
"0  c #532204",
"q  c #5A2705",
"w  c #47370D",
"e  c #593606",
"r  c #5D2D10",
"t  c #533517",
"y  c #632204",
"u  c #6B2404",
"i  c #642E05",
"p  c #672B08",
"a  c #732C04",
"s  c #7A2C04",
"d  c #683605",
"f  c #723504",
"g  c #7A3906",
"h  c #793710",
"j  c #5B4218",
"k  c #5C531A",
"l  c #5D4909",
"z  c #6A4B09",
"x  c #674706",
"c  c #755405",
"v  c #765B05",
"b  c #755B09",
"n  c #795608",
"m  c #6E4212",
"M  c #7C4D13",
"N  c #7E5E18",
"B  c #784009",
"V  c #77600D",
"C  c #6F601C",
"Z  c #776314",
"A  c #7F601C",
"S  c #75701E",
"D  c #745529",
"F  c #933D04",
"G  c #894C04",
"H  c #934404",
"J  c #954906",
"K  c #9A4F0C",
"L  c #8A580C",
"P  c #9D530B",
"I  c #835917",
"U  c #A25D13",
"Y  c #8B6405",
"T  c #866103",
"R  c #9B6A02",
"E  c #946504",
"W  c #9C7806",
"Q  c #88631B",
"!  c #987C11",
"~  c #946E17",
"^  c #A36D03",
"/  c #AD6A07",
"(  c #A47303",
")  c #AB7604",
"_  c #AC7B02",
"`  c #A6730C",
"'  c #B47D04",
"]  c #BA7D05",
"[  c #B47D0B",
"{  c #BD7C0C",
"}  c #AB7815",
"|  c #B27E1A",
" . c #A56315",
".. c #914920",
"X. c #A35F20",
"o. c #856526",
"O. c #966926",
"+. c #A67A28",
"@. c #9B820E",
"#. c #B58303",
"$. c #BC8504",
"%. c #BF8B05",
"&. c #B8890A",
"*. c #B69906",
"=. c #BC851B",
"-. c #BB9814",
";. c #AA8302",
":. c #B98828",
">. c #AF9821",
",. c #B99827",
"<. c #B8983C",
"1. c #A68426",
"2. c #B8A325",
"3. c #C08602",
"4. c #C2890A",
"5. c #C49D0C",
"6. c #CA950A",
"7. c #C38C12",
"8. c #CD9C14",
"9. c #C89717",
"0. c #D49B1C",
"q. c #D09805",
"w. c #D8AA0C",
"e. c #DCB109",
"r. c #D8A916",
"t. c #D8BC17",
"y. c #CAA017",
"u. c #E3B216",
"i. c #E1A709",
"p. c #C59528",
"a. c #C39735",
"s. c #CFA324",
"d. c #D8A224",
"f. c #D4AA2E",
"g. c #D7AA24",
"h. c #C7B73C",
"j. c #D2B837",
"k. c #E1A828",
"l. c #E3B829",
"z. c #DBC507",
"x. c #F2CB09",
"c. c #E6D603",
"v. c #FDD808",
"b. c #F7C717",
"n. c #FEDF15",
"m. c #FDD513",
"M. c #EDE600",
"N. c #FFE304",
"B. c #FEEB03",
"V. c #FFEA09",
"C. c #FAE60A",
"Z. c #FDF604",
"A. c #FEFE03",
"S. c #FFFF0A",
"D. c #F5F301",
"F. c #FAE619",
"G. c #FFFF13",
"H. c #FFFF19",
"J. c #D4CA35",
"K. c #E5CB2C",
"L. c #E6D22F",
"P. c #E9C53A",
"I. c #F1CB30",
"U. c #FADA35",
"Y. c #FFEB23",
"T. c #FFE72A",
"R. c #FFF524",
"E. c #FFFC23",
"W. c #FDFD2B",
"Q. c #FFF72A",
"!. c #FFEB3B",
"~. c #FFE137",
"^. c #FCF736",
"/. c #E2E43D",
"(. c #A78843",
"). c #A79D56",
"_. c #B39B5C",
"`. c #BEA561",
"'. c #C2AC4D",
"]. c #DAB946",
"[. c #CCB351",
"{. c #D8BF65",
"}. c #D3B963",
"|. c #C5B675",
" X c #D2B17E",
".X c #D4D659",
"XX c #E5C95A",
"oX c #F8D857",
"OX c #FFEE4D",
"+X c #F7E942",
"@X c #FFFC42",
"#X c #FFFF4B",
"$X c #FFF148",
"%X c #FEEB55",
"&X c #FEFB5C",
"*X c #F9F855",
"=X c #D6D664",
"-X c #E8CB6A",
";X c #EAD369",
":X c #EAD673",
">X c #F0DD78",
",X c #FFF36B",
"<X c #FDFA6C",
"1X c #FDF663",
"2X c #EBE975",
"3X c #F4EA76",
"4X c #FFFE75",
"5X c #FCF67B",
"6X c #F7E765",
"7X c #BBB183",
"8X c #C8BF93",
"9X c #DABF93",
"0X c #CCC491",
"qX c #D6CA94",
"wX c #EAD886",
"eX c #F4DD82",
"rX c #E6D793",
"tX c #EDE089",
"yX c #FFFB82",
"uX c #FEFB92",
"iX c #FDF897",
"pX c #E6D8AB",
"aX c #EDE0A2",
"sX c #FCF8A5",
"dX c #FDFBBF",
/* pixels */
"                                                                ",
"                    A.A.S.S.G.H.E.W.^./.                        ",
"                A.A.A.A.A.S.S.S.G.G.W.#X*X.X                    ",
"              A.A.A.A.A.A.S.S.G.G.G.G.G.@X<X=X                  ",
"          D.A.A.A.A.A.A.M.c.z.z.F.W.#X^.H.E.&X2X).              ",
"          Z.A.A.A.A.c.*.V c x x b ! L.&X&XW.R.&X2X              ",
"        B.Z.A.A.A.z.v d f g f g d d z 1.3X4XH.R.*X[.            ",
"      C.V.Z.A.M.@.8 g H H H H H H H H q Z :X4XY.F.<XS           ",
"      C.N.B.A.*.8 i H H H H } U H H H H 8 A sX&XF.^.h.          ",
"    t.n.N.B.c.8 9 H H H H P aX XJ H H H d = `.iX$Xm.J.k         ",
"    >.b.v.N.;.% 0 H H H J <.uXwXU H F F f & A rX,Xx.2.k         ",
"    ,.w.c.v.i X 8 F H K X.wX@X1X:.P F F a % 9 |.5Xw.! C         ",
"  <.j.-.e.e.& % e a.t.K.>X4X$XyX+XL.].g.L * % (.>X-.@.Z :       ",
"  '.XX-.e.q.X % t `.iX1X@XQ.OXiX^.T.U.b.B & . o.;X-.! Z :       ",
"  `.;X5.e.q.. * 4 D pXdX4X&XOX1XF.m.b. .8 & . I XX-.@.V ,       ",
"  =XwXy.u.w.& & 2 y ..9XsXY.!.uXU.b.H a 8 = % ~ P.-.` b :       ",
"  |.wX8.r.u.2 & 1 q s ,.*Xv.T.,XOXK.s u 3 = = } l.&.W c @       ",
"    rXf.r.I.L & - 5 u h.!.m.I.eX%X~.a y 2 = d 9.r.&.W l O       ",
"    qX].8.P.f.1 - 3 d ].b.i.7.}.3X%Xg 6 2 ; E 8.5.;.Y w O       ",
"    7X:Xs.r.6XI 1 1 h -.$.J u h (.[.I 3 - q $.6.%.;.b # O       ",
"      aX-X0.l.{.I 3 r p 5 5 5 6 5 r i 1 i R 6.%.#.W w O         ",
"      0XrX].0.;X{.O.0 5 u 7 7 7 7 6 2 i ^ 3.3.#._ T + O         ",
"        qXwX9.f.XX-X+.h 6 6 6 6 6 y G ^ $.3.#._ R > O O         ",
"          0XeX9.7.g.oXoXd.{ / / ] 3.$.#.#.' ) R w O O           ",
"            rX:Xp.$.7.0.k.k.0.6.4.$.] ' _ ( E w @ O             ",
"              _.}.[.p.=.[ [ [ ' ) ) ( ^ E c < + O               ",
"                D (.<.:.| } ` ` ` E E n w , O O                 ",
"                    j D Q Q I n c z w < O O O                   ",
"                        + @ @ @ + O O O                         ",
"                                                                ",
"                                                                ",
"                                                                "
};
