/* XPM */
static char *_7c6b5dc5e744d3dbab68cd11ba8dd37KY4lvLRJdjThS9wg[] = {
/* columns rows colors chars-per-pixel */
"32 32 78 1 ",
"  c None",
". c black",
"X c #0C1A0E",
"o c #0D1C0F",
"O c #0D1D0F",
"+ c #0D1D10",
"@ c #0D1E10",
"# c #0E1E10",
"$ c #0E1F10",
"% c #0F2111",
"& c #0F2212",
"* c #102212",
"= c #16311A",
"- c #17311A",
"; c #17331B",
": c #18341C",
"> c #1A381E",
", c #1B3C20",
"< c #1F4323",
"1 c #26542C",
"2 c #27552D",
"3 c #28582E",
"4 c #28592F",
"5 c #29592F",
"6 c #2A5C31",
"7 c #2B5D31",
"8 c #2B6032",
"9 c #2C6032",
"0 c #2D6133",
"q c #2C6233",
"w c #2C6234",
"e c #2D6334",
"r c #2E6535",
"t c #2E6736",
"y c #2F6736",
"u c #326D3A",
"i c #326E3A",
"p c #326F3A",
"a c #326F3B",
"s c #34703B",
"d c #34723C",
"f c #35733D",
"g c #36753E",
"h c #36763E",
"j c #36773F",
"k c #37773F",
"l c #377840",
"z c #387A40",
"x c #387A41",
"c c #387B41",
"v c #397B41",
"b c #397D42",
"n c #3A7F43",
"m c #3B7E44",
"M c #3A8043",
"N c #3A8044",
"B c #3B8144",
"V c #3B8345",
"C c #3C8446",
"Z c #3D8646",
"A c #3D8747",
"S c #3E8847",
"D c #3F8448",
"F c #3E8948",
"G c #408C4A",
"H c #438A4C",
"J c #438D4D",
"K c #45924F",
"L c #469150",
"P c #479551",
"I c #4E9D58",
"U c #509E5B",
"Y c #52A35D",
"T c #58A862",
"R c #59AA63",
"E c #59AC64",
"W c #5BAE66",
"Q c #60B46B",
/* pixels */
"                                ",
"                                ",
"                                ",
"                                ",
"                                ",
"                                ",
"          ............          ",
"          XO*******%@X          ",
"      ...X<4ettyytte4<X...      ",
"      XOO;7cCFFFFFFVc8;OOX      ",
"    .X<119lCSFFFFFFSCj811<X.    ",
"    X;9jjcCFFFFFFFFFFCcjj7;X    ",
"  .X<9lVVCCFFFFFFFFFFCCVVj8<X.  ",
"  X;9cCFKPPKGFFFFFFFFFFFFCc8;X  ",
".X<9jCCKYEEYKFFFFFFFFFFFFSCj8<X.",
".@4cCGPIWQWYKFFFFFFFFFFFFFFCc4@.",
".*9BCKYWQWILGGGGFFFFGGCSSSSCVt%.",
".*yGGKYTTUJCBBBCCCCCCvaytsVFFt%.",
".*yCGGPPHGmvccvvccccvy>*%,sFFt%.",
".*yGCBBBlgks0450akklk5#..%eCFt%.",
".*tCvvvckkk0:##:0kkkk5#..*7MCt%.",
".*9Mkkckkkk5#..#5kkkk0:#@:9kV9%.",
".O6jkkkkkkk5#..#5kkkks0549ujj6@.",
".X<7uggkkkk0:##:0kkkkkkkkkju6<X.",
"  X;6sffkkka9550akkkkkjjfsf6;X  ",
"  .X<116akkkkkkkkkkkkkju711<X.  ",
"    XOX;7fkkkkkkkkkkkjf7;XOX    ",
"    ...X<22555555544422<X...    ",
"        oo##########@OOX        ",
"        ................        ",
"                                ",
"                                "
};
