/* XPM */
static char *_e74cd77d23c439dbd0c61cce893a4fbztd5uCmK0JpqEEiD[] = {
/* columns rows colors chars-per-pixel */
"32 32 65 1 ",
"  c #434F65",
". c #3F4B60",
"X c #384255",
"o c #353E50",
"O c #394255",
"+ c #404B60",
"@ c #434E64",
"# c #444E64",
"$ c #4A576F",
"% c #596782",
"& c #616F8B",
"* c #4E5B74",
"= c #647391",
"- c #6E7E9E",
"; c #6B7B9B",
": c #6A7999",
"> c #647390",
", c #4E5B73",
"< c #6F7F9F",
"1 c #637392",
"2 c #5F6E8E",
"3 c #48546B",
"4 c #586680",
"5 c #5D6B87",
"6 c #55627E",
"7 c #515E7A",
"8 c #525F7B",
"9 c #53617E",
"0 c #606F8B",
"q c #3B4559",
"w c #414B60",
"e c #424D62",
"r c #404A5F",
"t c #3E495E",
"y c #414C62",
"u c #46526A",
"i c #5A6988",
"p c #5E6D8C",
"a c #667595",
"s c #606F8C",
"d c #4D5A72",
"f c #4B5870",
"g c #5C6A86",
"h c #61708E",
"j c #5C6B8A",
"k c #5B6A89",
"l c #586784",
"z c #465269",
"x c #515E79",
"c c #576683",
"v c #54627F",
"b c #4C5973",
"n c #445066",
"m c #49556E",
"M c #3D475C",
"N c #3A4457",
"B c #596786",
"V c #566481",
"C c #4D5A74",
"Z c #455168",
"A c #4F5D77",
"S c #3D475B",
"D c #505E79",
"F c #47546C",
"G c #445167",
/* pixels */
" .XooooooooooooO+.Xooooooooooooo",
"  @############@  @#############",
" $%&&&&&&&&&&&&%$$%&&&&&&&&&&&&&",
" *=-;::::::::;->,*=-;::::::::;-<",
" *=;1222222221;>,*=;1222222221;<",
".3456778998776543345677899877650",
"Xqwerttyuuyttrewqqwerttyuuyttre@",
"#######@  @############@  @#####",
"&&&&&&&%$$%&&&&&&&&&&&&%$$%&&&&&",
":::::;->,*=-;::::::::;->,*=-;:::",
"222221;>,*=;1222222221;>,*=;1222",
"iiiiipasdfghjiiiiiiiipasddsapiii",
"iiiiikpl$zfxciiiiiiiikpl$$lpkiii",
"v987777bn..nb7789987777bnnb77777",
"muyttttMNXXNMttyuuyttttMNNMttttt",
"  @############@  @#############",
" $%&&&&&&&&&&&&%$$%&&&&&&&&&&&&&",
" *=-;::::::::;->,*=-;::::::::;-<",
" *=;1222222221;>,*=;1222222221;<",
" dsapBVVBiiiipasddsapiiiiiiiipa:",
" $lpkVCCViiiikpl$$lpkiiiiiiiikp2",
".nb77bnZA987777bnnb7777899877777",
"XNMttMNSZuyttttMNNMttttyuuyttttt",
"#######@  @############@  @#####",
"&&&&&&&%$$%&&&&&&&&&&&&%$$%&&&&&",
":::::;->,*=-;::::::::;->,*=-;:::",
"222221;>,*=;1222222221;>,*=;1222",
"iiiiipasddsapiiiiiiiipasddsapiii",
"iiiiikpl$$lpkiiiiiiiikpl$$lpkiii",
"vvvvvvvDFFDvvvvvvvvvvvvDFFDvvvvv",
"mmmmmmmFGGFmmmmmmmmmmmmFGGFmmmmm",
"                                "
};
